<svg width="136" height="86" viewBox="0 0 136 86" fill="none" xmlns="http://www.w3.org/2000/svg">
<g filter="url(#filter0_g_50_54)">
<rect x="8" y="8" width="120" height="70" rx="25" fill="#392949"/>
</g>
<path d="M56.125 55.5625C54.2031 55.5625 52.6504 55.1699 51.4668 54.3848C50.2832 53.5996 49.3926 52.5273 48.7949 51.168C48.209 49.8086 47.916 48.4844 47.916 47.1953C47.916 44.5938 48.6602 41.9746 50.1484 39.3379C51.6367 36.6895 53.6406 34.5742 56.1602 32.9922C58.6914 31.3984 61.1875 30.6016 63.6484 30.6016C65.0898 30.6016 66.4551 30.9648 67.7441 31.6914C69.0449 32.418 70.0527 33.4316 70.7676 34.7324C71.4941 36.0332 71.8574 37.3457 71.8574 38.6699C71.8574 41.6348 70.9141 44.6113 69.0273 47.5996C67.1406 50.5762 65.0195 52.7324 62.6641 54.0684C60.8828 55.0645 58.7031 55.5625 56.125 55.5625ZM63.0684 32.043C62.1426 32.043 61.3516 32.2129 60.6953 32.5527C60.0508 32.8809 59.377 33.4375 58.6738 34.2227C57.9707 35.0078 57.2559 36.1328 56.5293 37.5977C55.8027 39.0508 55.1172 41.0312 54.4727 43.5391C53.8398 46.0469 53.5234 48.1387 53.5234 49.8145C53.5234 51.2441 53.834 52.3281 54.4551 53.0664C55.0762 53.793 55.873 54.1562 56.8457 54.1562C58.1348 54.1562 59.2305 53.7285 60.1328 52.873C61.9258 51.1738 63.3848 48.6836 64.5098 45.4023C65.6465 42.1094 66.2148 39.1797 66.2148 36.6133C66.2148 35.0078 65.9102 33.8477 65.3008 33.1328C64.7031 32.4062 63.959 32.043 63.0684 32.043ZM83.7402 30.6191L78.8887 47.248L82.9141 43.5215L84.25 42.3262C84.6367 41.9277 84.9062 41.5879 85.0586 41.3066C85.1523 41.1309 85.1992 40.9668 85.1992 40.8145C85.1992 40.5684 85.082 40.3633 84.8477 40.1992C84.6133 40.0352 84.0449 39.9238 83.1426 39.8652L83.3359 39.1973H90.4902L90.3145 39.8652C89.4707 40.0645 88.7852 40.293 88.2578 40.5508C87.8477 40.75 87.3438 41.0781 86.7461 41.5352C85.8555 42.2266 85.2168 42.7598 84.8301 43.1348L84.0566 43.8555L85.1289 48.707C85.5391 50.582 85.8438 51.666 86.043 51.959C86.1719 52.1348 86.3242 52.2227 86.5 52.2227C86.9102 52.2227 87.3965 51.7422 87.959 50.7812C88.041 50.6523 88.1523 50.4707 88.293 50.2363L88.9434 50.6406C88.0645 52.2812 87.0742 53.5293 85.9727 54.3848C85.2344 54.959 84.5664 55.2461 83.9688 55.2461C83.3711 55.2461 82.873 55.0352 82.4746 54.6133C82.0762 54.1797 81.6777 53.0547 81.2793 51.2383L80.4004 47.248L78.4668 48.9707L76.709 55H72.2266L78.0625 35.1543C78.3086 34.3105 78.4316 33.7422 78.4316 33.4492C78.4316 33.1797 78.373 32.9629 78.2559 32.7988C78.1387 32.623 77.9746 32.4941 77.7637 32.4121C77.5645 32.3301 77.1602 32.2891 76.5508 32.2891L76.709 31.6387L82.6855 30.6191H83.7402Z" fill="#BBADA3"/>
<defs>
<filter id="filter0_g_50_54" x="0" y="0" width="136" height="86" filterUnits="userSpaceOnUse" color-interpolation-filters="sRGB">
<feFlood flood-opacity="0" result="BackgroundImageFix"/>
<feBlend mode="normal" in="SourceGraphic" in2="BackgroundImageFix" result="shape"/>
<feTurbulence type="fractalNoise" baseFrequency="0.125 0.125" numOctaves="3" seed="3685" />
<feDisplacementMap in="shape" scale="16" xChannelSelector="R" yChannelSelector="G" result="displacedImage" width="100%" height="100%" />
<feMerge result="effect1_texture_50_54">
<feMergeNode in="displacedImage"/>
</feMerge>
</filter>
</defs>
</svg>
